<svg width="40" height="43" viewBox="0 0 40 43" fill="none" xmlns="http://www.w3.org/2000/svg">
<path d="M39.9771 23.0582C40.1489 26.3164 39.347 29.5038 37.8434 32.3229C36.2826 35.2553 33.9628 37.8052 31.1704 39.6326C29.853 40.4968 25.4569 43.2875 19.2851 42.9759C16.0488 42.8059 13.3997 41.7151 12.8555 41.5026C12.8555 41.5026 12.5691 41.3893 12.0966 41.1626C11.9104 41.0776 11.7099 40.9784 11.4952 40.8651C11.2231 40.7234 10.9367 40.5676 10.6216 40.3976C10.0489 40.0718 9.41879 39.6893 8.81737 39.2502C6.39733 37.4936 -0.304294 31.3454 0.0107397 23.0724C0.354413 14.0769 8.43073 4.41554 19.9867 4.41554C31.5428 4.40138 39.5045 14.0485 39.9771 23.0582Z" fill="#FF7481"/>
<path d="M0.626587 27.8463C0.769784 28.3563 0.98458 29.0505 1.31393 29.8579C1.54305 30.4104 2.28767 32.1387 3.89148 34.2636C4.95114 35.6661 6.66951 37.9185 9.76257 39.8734C12.068 41.3467 14.0871 41.9842 14.6313 42.14C16.5644 42.735 18.1969 42.8908 19.0704 42.9475C20.0155 43.0042 21.3043 43.0183 22.7935 42.82C25.9868 42.395 28.2493 41.2617 29.3806 40.6809C31.5285 39.5759 32.9175 38.4143 33.2469 38.1452C35.0225 36.6294 36.0536 35.1703 36.6836 34.2636C37.4855 33.1162 37.9438 32.2237 38.1156 31.8554C38.2158 31.6571 38.4306 31.1896 38.6884 30.5238C39.0893 29.4755 39.7767 27.648 39.9485 25.2398C39.9772 24.8998 40.0631 23.4407 39.834 21.5707C39.834 21.5424 39.834 21.5141 39.8196 21.4999C39.7481 21.0041 39.5189 19.3891 38.6884 17.2925C38.6884 17.2925 37.3853 14.006 35.2517 11.5411C34.8078 11.0311 34.3925 10.6061 34.3925 10.6061C35.0941 12.6744 36.1824 16.9526 34.9653 22.109C34.5214 23.9931 33.3185 28.7813 28.8078 32.677C27.9343 33.4278 26.4737 34.6744 24.2255 35.6236C17.9678 38.2585 10.6074 36.5727 5.75305 33.2153C4.42131 32.2804 2.37359 30.6088 0.626587 27.8463Z" fill="#F45B69"/>
<path d="M12.0817 32.0537C11.9242 32.762 11.5805 34.8444 12.7404 36.7852C14.3585 39.4626 17.6807 39.7601 19.1843 39.9017C20.8454 40.0576 23.4086 40.2842 25.1985 38.4851C26.9456 36.7427 26.8167 34.3061 26.7737 33.8103C21.8764 33.2295 16.979 32.6487 12.0817 32.0537Z" fill="#494949"/>
<path d="M20.4303 33.0596C20.3157 33.1446 19.6284 33.6687 19.5568 34.6178C19.4995 35.4253 19.9148 35.9778 20.015 36.1195C20.2012 36.2328 20.8169 36.6011 21.6331 36.5019C22.1773 36.4453 22.5639 36.2045 22.7501 36.0628C22.879 35.8645 23.0938 35.482 23.1367 34.9437C23.194 34.1079 22.7787 33.4987 22.6498 33.3287C21.9195 33.2296 21.1749 33.1446 20.4303 33.0596Z" fill="#F4F4F4"/>
<path d="M16.12 32.5356C16.0054 32.6206 15.2751 33.2015 15.2465 34.1931C15.2322 34.8447 15.5186 35.3122 15.6474 35.4822C15.8193 35.6239 16.2632 35.9639 16.9505 36.0347C17.6808 36.1197 18.2393 35.8505 18.4255 35.7514C18.5544 35.5814 18.9123 35.0856 18.941 34.3489C18.9696 33.5556 18.5973 32.989 18.4828 32.819C17.6952 32.734 16.9076 32.6348 16.12 32.5356Z" fill="#F4F4F4"/>
<path d="M12.2395 35.7229C12.3827 36.1195 12.6405 36.7003 13.0987 37.2811C14.903 39.6044 17.996 39.8169 19.1846 39.9019C21.0748 40.0294 23.4805 40.2135 25.1988 38.4853C26.9459 36.7428 26.817 34.3062 26.774 33.8104C26.4876 34.4621 25.8432 35.6662 24.5545 36.7145C23.2227 37.7911 21.9053 38.1169 21.2609 38.2728C18.3397 38.9811 15.934 37.9894 15.2466 37.7061C13.8004 37.097 12.8123 36.2753 12.2395 35.7229Z" fill="#3F3F3F"/>
<path d="M5.25106 12.5194C4.76419 12.321 4.97898 11.9669 3.69021 9.31782C3.56133 9.0345 3.27494 8.46785 3.16038 7.67454C3.07446 7.10789 3.11742 6.66874 3.14606 6.52708C3.1747 6.28626 3.26062 5.71961 3.58997 5.0538C3.79044 4.65715 4.36323 3.65135 4.70691 3.76467C4.90738 3.82134 4.82146 4.23216 5.0649 5.08213C5.19378 5.52128 5.37993 6.21543 5.89544 6.79624C6.39663 7.36289 7.01238 7.61788 7.38469 7.75954C8.63051 8.25536 9.46105 8.00036 9.70449 8.42535C9.80473 8.59534 9.80473 8.89283 9.41809 9.41698C9.28922 9.57281 6.85486 13.171 5.25106 12.5194Z" fill="#EBEBEB"/>
<path d="M34.8219 12.5182C35.3231 12.3199 35.094 11.9658 36.3828 9.31669C36.5116 9.03337 36.798 8.46672 36.9126 7.67341C36.9842 7.10677 36.9556 6.66761 36.9269 6.52595C36.8983 6.28513 36.8124 5.71848 36.483 5.05267C36.2825 4.65602 35.7097 3.65022 35.3661 3.76355C35.1656 3.82021 35.2515 4.23103 35.0081 5.081C34.8792 5.52015 34.693 6.2143 34.1775 6.79511C33.6763 7.36176 33.0606 7.61675 32.6883 7.75841C31.4425 8.25423 30.6119 7.99924 30.3685 8.42422C30.2682 8.59421 30.2682 8.8917 30.6549 9.41585C30.7981 9.57168 33.2181 13.1699 34.8219 12.5182Z" fill="#EBEBEB"/>
<path d="M19.9439 31.2603C26.0889 31.2603 31.0703 26.123 31.0703 19.7857C31.0703 13.4485 26.0889 8.31113 19.9439 8.31113C13.799 8.31113 8.8175 13.4485 8.8175 19.7857C8.8175 26.123 13.799 31.2603 19.9439 31.2603Z" fill="#F4F4F4"/>
<path d="M19.9442 27.6054C16.2067 27.6054 13.1566 24.4605 13.1566 20.5931C13.1566 16.7257 16.2067 13.5808 19.9442 13.5808C23.6816 13.5808 26.7317 16.7257 26.7317 20.5931C26.7317 24.4605 23.6959 27.6054 19.9442 27.6054Z" fill="#494949"/>
<path d="M20.0584 22.9874C18.4832 22.9874 17.0799 21.9533 16.5501 20.4233C15.877 18.4684 16.8651 16.3718 18.7553 15.7343C19.1133 15.6068 19.4999 15.5501 19.8722 15.5501C21.4474 15.5501 22.8507 16.5843 23.3806 18.1142C23.7099 19.0634 23.6526 20.0692 23.2374 20.9475C22.8221 21.8258 22.0918 22.4916 21.1753 22.7891C20.8173 22.9307 20.4307 22.9874 20.0584 22.9874Z" fill="#F1F1F1"/>
<path d="M17.1374 25.9338C16.2496 25.9338 15.5193 25.2113 15.5193 24.333C15.5193 23.4547 16.2496 22.7322 17.1374 22.7322C18.0396 22.7322 18.7555 23.4547 18.7555 24.333C18.7555 25.2113 18.0252 25.9338 17.1374 25.9338Z" fill="#F1F1F1"/>
<path d="M16.3776 4.04641C16.392 3.93308 16.4636 3.04062 17.1652 2.61563C17.8955 2.16231 19.0125 2.38897 19.6998 3.28144C20.5017 1.82232 21.948 1.21318 22.8788 1.59566C23.3657 1.79399 23.8525 2.33231 24.0817 2.96978C24.2105 3.33811 24.2392 3.67809 24.2392 3.89059C25.1843 4.00392 25.9432 4.40057 26.0291 4.92472C26.158 5.67553 24.812 6.41217 24.3824 6.63882C23.695 7.00715 23.0936 7.12048 22.4206 7.24797C21.3466 7.4463 20.5447 7.43213 19.5423 7.4038C18.1819 7.37547 17.4946 7.34713 16.664 7.09214C15.676 6.78049 14.9457 6.29884 14.5018 5.95885C14.0865 5.56219 13.929 5.03805 14.0865 4.64139C14.244 4.27307 14.6163 4.11725 14.8454 4.03225C15.5328 3.77726 16.1628 3.97558 16.3776 4.04641Z" fill="#3886A8"/>
<path d="M17.1804 5.01042C17.1804 4.92542 17.252 4.24545 17.7818 3.91963C18.3403 3.57964 19.1851 3.74963 19.7006 4.42961C20.3021 3.32465 21.4047 2.85716 22.1063 3.15465C22.4787 3.31048 22.851 3.7213 23.0228 4.18878C23.123 4.47211 23.1374 4.7271 23.1374 4.88293C23.8534 4.96792 24.4261 5.27958 24.4977 5.66207C24.598 6.22871 23.5813 6.78119 23.2519 6.96535C22.7221 7.24868 22.2782 7.33367 21.7627 7.43284C20.9608 7.5745 20.345 7.5745 19.5861 7.54617C18.5551 7.51783 18.0395 7.50367 17.4095 7.31951C16.6649 7.09285 16.1064 6.72453 15.777 6.46954C15.462 6.17205 15.3474 5.77539 15.462 5.47791C15.5766 5.19458 15.8629 5.08125 16.0348 5.01042C16.536 4.79793 17.0085 4.93959 17.1804 5.01042Z" fill="#57A0C1"/>
<path d="M15.5759 3.11229C15.5902 2.97063 15.6904 1.894 16.5353 1.36985C17.4231 0.817366 18.7835 1.10069 19.614 2.17732C20.5878 0.406547 22.3348 -0.330094 23.4661 0.13739C24.0532 0.378215 24.6546 1.02986 24.9267 1.809C25.0985 2.26232 25.1128 2.65897 25.1128 2.91396C26.2584 3.04146 27.1749 3.53727 27.2894 4.17475C27.4469 5.09555 25.8145 5.97386 25.299 6.25718C24.4684 6.7105 23.7381 6.85216 22.9219 6.99382C21.6331 7.23465 20.6451 7.20632 19.4422 7.17798C17.7954 7.13548 16.9649 7.12132 15.9625 6.80966C14.7597 6.44134 13.8862 5.86053 13.3563 5.43554C12.8551 4.95389 12.6547 4.33058 12.8551 3.83476C13.0413 3.38144 13.4995 3.21145 13.7716 3.09812C14.5449 2.7723 15.3038 3.01313 15.5759 3.11229Z" fill="#246693"/>
</svg>
